HIERARCHY
ROOT SpineBase
{
  OFFSET 0.000000 0.000000 0.000000
  CHANNELS 6 Xposition Yposition Zposition Zrotation Xrotation Yrotation
  JOINT SpineMid
  {
    OFFSET 0.000000 25.261381 0.000000
    CHANNELS 3 Zrotation Xrotation Yrotation
    JOINT SpineShoulder
    {
      OFFSET 0.058171 18.644727 -0.678105
      CHANNELS 3 Zrotation Xrotation Yrotation
      JOINT Neck
      {
        OFFSET 0.022260 6.121014 -0.525935
        CHANNELS 3 Zrotation Xrotation Yrotation
        JOINT Head
        {
          OFFSET 2.985036 11.656235 -2.813467
          CHANNELS 3 Zrotation Xrotation Yrotation
          End Site
          {
            OFFSET 0 0 0
          }
        }
      }
      JOINT ShoulderLeft
      {
        OFFSET -14.771849 -3.255696 -8.447242
        CHANNELS 3 Zrotation Xrotation Yrotation
        JOINT ElbowLeft
        {
          OFFSET -8.337503 -22.515925 -0.553142
          CHANNELS 3 Zrotation Xrotation Yrotation
          JOINT WristLeft
          {
            OFFSET 4.547107 -19.583215 -20.302290
            CHANNELS 3 Zrotation Xrotation Yrotation
            JOINT HandLeft
            {
              OFFSET 3.678705 -7.689518 -1.963485
              CHANNELS 3 Zrotation Xrotation Yrotation
              JOINT HandTipLeft
              {
                OFFSET 3.385150 -6.851674 -3.876948
                CHANNELS 3 Zrotation Xrotation Yrotation
                End Site
                {
                  OFFSET 0 0 0
                }
              }
              JOINT ThumbLeft
              {
                OFFSET 4.915706 1.014731 4.020639
                CHANNELS 3 Zrotation Xrotation Yrotation
                End Site
                {
                  OFFSET 0 0 0
                }
              }
            }
          }
        }
      }
      JOINT ShoulderRight
      {
        OFFSET 14.303541 -5.339182 2.788387
        CHANNELS 3 Zrotation Xrotation Yrotation
        JOINT ElbowRight
        {
          OFFSET 8.042619 -23.752691 4.721695
          CHANNELS 3 Zrotation Xrotation Yrotation
          JOINT WristRight
          {
            OFFSET 12.194804 -20.836246 -14.767407
            CHANNELS 3 Zrotation Xrotation Yrotation
            JOINT HandRight
            {
              OFFSET 1.384124 -4.842051 -3.085166
              CHANNELS 3 Zrotation Xrotation Yrotation
              JOINT HandTipRight
              {
                OFFSET 0.043121 -5.906837 -3.954679
                CHANNELS 3 Zrotation Xrotation Yrotation
                End Site
                {
                  OFFSET 0 0 0
                }
              }
              JOINT ThumbRight
              {
                OFFSET 1.101929 0.324587 -2.154039
                CHANNELS 3 Zrotation Xrotation Yrotation
                End Site
                {
                  OFFSET 0 0 0
                }
              }
            }
          }
        }
      }
    }
  }
  JOINT HipLeft
  {
    OFFSET -6.439228 0.309092 -5.530198
    CHANNELS 3 Zrotation Xrotation Yrotation
    JOINT KneeLeft
    {
      OFFSET 12.114000 -11.954477 -30.482275
      CHANNELS 3 Zrotation Xrotation Yrotation
      JOINT AnkleLeft
      {
        OFFSET -3.845908 -34.610264 4.704596
        CHANNELS 3 Zrotation Xrotation Yrotation
        JOINT FootLeft
        {
          OFFSET 1.744057 -6.368618 -7.831761
          CHANNELS 3 Zrotation Xrotation Yrotation
          End Site
          {
            OFFSET 0 0 0
          }
        }
      }
    }
  }
  JOINT HipRight
  {
    OFFSET 6.117592 -0.162728 -1.528219
    CHANNELS 3 Zrotation Xrotation Yrotation
    JOINT KneeRight
    {
      OFFSET 19.478392 -11.893968 -24.637584
      CHANNELS 3 Zrotation Xrotation Yrotation
      JOINT AnkleRight
      {
        OFFSET -6.261681 -35.038506 6.343059
        CHANNELS 3 Zrotation Xrotation Yrotation
        JOINT FootRight
        {
          OFFSET 1.204400 -6.049479 -9.170791
          CHANNELS 3 Zrotation Xrotation Yrotation
          End Site
          {
            OFFSET 0 0 0
          }
        }
      }
    }
  }
}
MOTION
Frames: 14
Frame Time: 0.033333
18.172450 54.286864 393.507479 -0.000000 0.000000 -17.677580 0.000000 0.000000 17.677580 -0.000000 0.000000 0.000000 -0.000000 0.000000 0.000000 0.000000 0.000000 0.000000 -0.000000 0.000000 0.000000 -0.000000 0.000000 0.000000 -0.000000 0.000000 0.000000 -0.000000 0.000000 0.000000 0.000000 0.000000 0.000000 0.000000 0.000000 0.000000 -0.000000 0.000000 0.000000 -0.000000 0.000000 0.000000 -0.000000 0.000000 0.000000 -0.000000 0.000000 0.000000 0.000000 0.000000 0.000000 0.000000 0.000000 0.000000 0.000000 0.000000 17.677580 -0.000000 0.000000 0.000000 -0.000000 0.000000 0.000000 0.000000 0.000000 0.000000 0.000000 0.000000 17.677580 -0.000000 0.000000 0.000000 -0.000000 0.000000 0.000000 0.000000 0.000000 0.000000
18.050490 54.266714 393.416730 -0.198818 0.108058 -17.812793 0.222342 -0.042057 17.813062 -0.000000 0.000000 0.000000 -0.000000 0.000000 0.000000 0.000000 0.000000 0.000000 -0.000000 0.000000 0.000000 -0.000000 0.000000 0.000000 -0.535827 -0.850489 -0.275177 0.558833 -0.699397 -0.517020 0.000000 0.000000 0.000000 0.000000 0.000000 0.000000 -0.000000 0.000000 0.000000 -0.000000 0.000000 0.000000 -0.000000 0.000000 0.000000 -0.000000 0.000000 0.000000 0.000000 0.000000 0.000000 0.000000 0.000000 0.000000 0.222342 -0.042057 17.813062 -0.000000 0.000000 0.000000 0.339010 2.141621 0.159526 0.000000 0.000000 0.000000 0.222342 -0.042057 17.813062 -0.000000 0.000000 0.000000 1.697309 1.951847 -2.151367 0.000000 0.000000 0.000000
17.958000 54.250222 393.352275 -0.353050 0.185271 -17.943791 0.392956 -0.067487 17.944593 -0.000000 0.000000 0.000000 -0.000000 0.000000 0.000000 0.000000 0.000000 0.000000 0.934949 0.726739 -0.298865 -1.432590 0.091030 0.986744 -0.386581 -2.008679 -1.072096 0.848263 -1.664490 -1.078296 0.000000 0.000000 0.000000 0.000000 0.000000 0.000000 -0.000000 0.000000 0.000000 -0.000000 0.000000 0.000000 -0.000000 0.000000 0.000000 -0.788321 -1.134657 0.515144 0.000000 0.000000 0.000000 0.000000 0.000000 0.000000 0.392956 -0.067487 17.944593 -0.000000 0.000000 0.000000 0.615433 3.878708 0.273149 0.000000 0.000000 0.000000 0.392956 -0.067487 17.944593 -0.000000 0.000000 0.000000 2.782286 3.086053 -3.517287 0.000000 0.000000 0.000000
17.894983 54.237390 393.314112 -0.462719 0.231655 -18.070957 0.511753 -0.076689 18.072235 -0.000000 0.000000 0.000000 -0.000000 0.000000 0.000000 0.000000 0.000000 0.000000 1.232101 0.926661 -0.384833 -1.995611 0.112682 1.386461 -0.229779 -2.040414 -1.278617 0.853746 -2.892203 -1.672430 0.000000 0.000000 0.000000 0.000000 0.000000 0.000000 -0.000000 0.000000 0.000000 -0.000000 0.000000 0.000000 -0.000000 0.000000 0.000000 -1.287808 -1.551563 0.841149 0.000000 0.000000 0.000000 0.000000 0.000000 0.000000 0.511753 -0.076689 18.072235 -0.000000 0.000000 0.000000 0.839756 5.261631 0.350143 0.000000 0.000000 0.000000 0.511753 -0.076689 18.072235 -0.000000 0.000000 0.000000 3.302315 3.554223 -4.179690 0.000000 0.000000 0.000000
17.861436 54.228216 393.302243 -0.527845 0.247221 -18.194626 0.578646 -0.070035 18.196118 -0.000000 0.000000 0.000000 -0.000000 0.000000 0.000000 0.000000 0.000000 0.000000 1.417900 1.020790 -0.427331 -2.458195 0.114784 1.728166 0.187247 -1.398449 -1.248116 0.560498 -4.378509 -2.298374 0.000000 0.000000 0.000000 0.000000 0.000000 0.000000 -0.000000 0.000000 0.000000 -0.000000 0.000000 0.000000 -0.000000 0.000000 0.000000 -1.859555 -1.861191 1.214609 0.000000 0.000000 0.000000 0.000000 0.000000 0.000000 0.578646 -0.070035 18.196118 -0.000000 0.000000 0.000000 1.019619 6.329943 0.396984 0.000000 0.000000 0.000000 0.578646 -0.070035 18.196118 -0.000000 0.000000 0.000000 3.282112 3.421235 -4.178662 0.000000 0.000000 0.000000
17.857362 54.222701 393.316667 -0.548439 0.231977 -18.315082 0.593553 -0.047875 18.316441 -0.000000 0.000000 0.000000 -0.000000 0.000000 0.000000 0.000000 0.000000 0.000000 1.493114 1.010054 -0.425832 -2.821092 0.094485 2.013879 0.873999 -0.063513 -0.982121 -0.047481 -6.116980 -2.966256 0.000000 0.000000 0.000000 0.000000 0.000000 0.000000 -0.000000 0.000000 0.000000 -0.000000 0.000000 0.000000 -0.175950 -1.169840 -0.225670 -2.324015 -0.899542 1.910033 0.000000 0.000000 0.000000 0.000000 0.000000 0.000000 0.593553 -0.047875 18.316441 -0.000000 0.000000 0.000000 1.160533 7.113635 0.418121 0.000000 0.000000 0.000000 0.593553 -0.047875 18.316441 -0.000000 0.000000 0.000000 2.719302 2.676300 -3.511653 0.000000 0.000000 0.000000
17.882851 54.225254 393.344012 -0.506500 0.191176 -18.544696 0.541002 -0.020154 18.545636 -0.000000 0.000000 0.000000 -0.000000 0.000000 0.000000 0.000000 0.000000 0.000000 1.516606 0.864280 -0.370489 -3.371070 0.517148 2.566942 1.573778 1.806875 -0.558161 -0.295184 -8.019912 -3.864546 0.000000 0.000000 0.000000 0.000000 0.000000 0.000000 -0.000000 0.000000 0.000000 -0.000000 0.000000 0.000000 -0.603327 -2.729813 -0.417396 -2.813042 -0.443231 2.767932 0.000000 0.000000 0.000000 0.000000 0.000000 0.000000 0.541002 -0.020154 18.545636 -0.000000 0.000000 0.000000 1.444407 8.932868 0.511201 0.000000 0.000000 0.000000 0.541002 -0.020154 18.545636 -0.000000 0.000000 0.000000 1.785041 1.201575 -2.439051 0.000000 0.000000 0.000000
17.935145 54.231396 393.425979 -0.425341 0.093138 -18.680329 0.432765 0.048001 18.680493 -0.000000 0.000000 0.000000 -0.855590 -0.336685 -0.122489 0.000000 0.000000 0.000000 1.147970 0.466734 -0.206453 -3.329277 -0.351957 2.480807 4.041669 7.499540 0.841208 -2.796027 -11.974132 -5.413850 0.000000 0.000000 0.000000 0.000000 0.000000 0.000000 -0.000000 0.000000 0.000000 -0.000000 0.000000 0.000000 -0.817775 -3.317091 -0.460520 -4.097934 2.397683 3.946470 0.000000 0.000000 0.000000 0.000000 0.000000 0.000000 0.432765 0.048001 18.680493 -0.000000 0.000000 0.000000 1.319109 7.472328 0.314582 0.000000 0.000000 0.000000 0.432765 0.048001 18.680493 -0.000000 0.000000 0.000000 -1.159152 -2.502202 1.278585 0.000000 0.000000 0.000000
18.010171 54.238406 393.531044 -0.299373 -0.029579 -18.707115 0.274071 0.124033 18.706741 -0.000000 0.000000 0.000000 -0.992736 -0.502659 -0.114875 0.000000 0.000000 0.000000 0.934229 0.238961 -0.113723 -3.488161 -1.013137 2.583327 6.360150 11.656389 1.437786 -5.750203 -14.330735 -6.173477 0.000000 0.000000 0.000000 0.000000 0.000000 0.000000 -0.000000 0.000000 0.000000 -0.000000 0.000000 0.000000 -0.850995 -4.195308 -0.706709 -4.829806 2.166936 4.775416 0.000000 0.000000 0.000000 0.000000 0.000000 0.000000 0.274071 0.124033 18.706741 -0.000000 0.000000 0.000000 1.325088 7.497434 0.313455 0.000000 0.000000 0.000000 0.274071 0.124033 18.706741 -0.000000 0.000000 0.000000 -2.241937 -3.942212 2.686981 0.000000 0.000000 0.000000
18.143649 54.237238 393.648397 -0.152989 -0.136504 -18.692182 0.101172 0.178334 18.691842 -0.000000 0.000000 0.000000 -0.959592 -0.798706 -0.033639 0.000000 0.000000 0.000000 1.239748 0.227798 -0.117740 -3.881069 -0.700079 2.748348 6.666485 10.416118 0.839276 -6.155988 -13.162670 -5.359593 0.000000 0.000000 0.000000 0.000000 0.000000 0.000000 -0.000000 0.000000 0.000000 -0.000000 0.000000 0.000000 -1.292893 -4.916858 -0.658187 -4.723331 4.460567 5.031358 0.000000 0.000000 0.000000 0.000000 0.000000 0.000000 0.101172 0.178334 18.691842 -0.000000 0.000000 0.000000 1.332215 7.511524 0.308313 0.000000 0.000000 0.000000 0.101172 0.178334 18.691842 0.300634 0.971732 -0.122031 -4.632060 -7.181636 5.649393 0.000000 0.000000 0.000000
18.287977 54.241637 393.774908 -0.034239 -0.271427 -18.711167 -0.054644 0.268065 18.711214 -0.000000 0.000000 0.000000 -0.715530 -1.120954 0.106940 0.000000 0.000000 0.000000 1.765613 0.559314 -0.260565 -4.133096 -2.144623 2.326292 7.698667 9.095724 -0.256227 -7.452764 -10.669676 -3.550272 0.000000 0.000000 0.000000 0.000000 0.000000 0.000000 -0.244439 0.759313 0.210564 0.397828 -0.011469 0.121715 -1.958788 -5.382182 -0.632911 -3.640774 2.125434 4.109248 0.000000 0.000000 0.000000 0.000000 0.000000 0.000000 -0.054644 0.268065 18.711214 -0.000000 0.000000 0.000000 1.389668 7.513612 0.240111 0.000000 0.000000 0.000000 -0.054644 0.268065 18.711214 0.381184 0.874155 -0.090302 -5.829474 -10.117830 6.885253 0.000000 0.000000 0.000000
18.414408 54.241215 393.834447 0.059477 -0.309092 -18.789530 -0.155865 0.273462 18.790062 -0.000000 0.000000 0.000000 -0.464717 -1.402589 0.240388 0.000000 0.000000 0.000000 1.505439 -0.212450 0.044694 -4.188082 -2.599279 2.097186 9.092350 13.459164 0.494021 -9.024646 -11.986711 -4.170450 0.000000 0.000000 0.000000 0.000000 0.000000 0.000000 -0.163534 0.954162 0.292563 0.405677 -0.127981 0.023130 -3.059486 -4.442787 0.315458 -3.061954 0.810669 3.353264 0.000000 0.000000 0.000000 0.000000 0.000000 0.000000 -0.155865 0.273462 18.790062 -0.000000 0.000000 0.000000 1.458252 7.479478 0.149915 0.000000 0.000000 0.000000 -0.263724 0.747426 19.471567 0.443241 0.156249 -0.705608 -7.592612 -12.885057 9.075202 0.000000 0.000000 0.000000
18.519780 54.240397 393.867090 0.139188 -0.326831 -18.932624 -0.237702 0.263988 18.933569 -0.000000 0.000000 0.000000 -0.295561 -1.559115 0.322662 0.000000 0.000000 0.000000 1.736796 -0.027410 -0.032287 -3.967681 -1.918719 1.900244 7.019446 8.212811 -0.442954 -6.651430 -7.005611 -1.673848 0.000000 0.000000 0.000000 0.000000 0.000000 0.000000 0.107159 1.495663 0.527559 0.157465 -0.583312 -0.184388 -4.421771 -3.934695 1.284201 -2.245331 1.467659 2.663143 0.000000 0.000000 0.000000 0.000000 0.000000 0.000000 -0.237702 0.263988 18.933569 -0.000000 0.000000 0.000000 1.540596 7.439034 0.041757 0.000000 0.000000 0.000000 -0.596641 0.454544 19.995424 0.272144 -0.301798 -1.058888 -9.803962 -17.312113 13.143710 0.000000 0.000000 0.000000
18.613206 54.235692 393.889254 0.248168 -0.345185 -19.011501 -0.347080 0.245510 19.012992 -0.000000 0.000000 0.000000 -0.352739 -1.786993 0.365360 0.000000 0.000000 0.000000 1.645579 0.654948 -0.293882 -3.594056 -3.793842 1.553659 8.326113 9.982006 -0.344377 -7.349299 -6.917083 -1.723352 0.000000 0.000000 0.000000 0.000000 0.000000 0.000000 0.369700 1.714186 0.649640 -1.009221 -1.343287 -0.024358 -4.429115 -1.355491 2.237779 -3.224143 -0.179873 2.609254 0.000000 0.000000 0.000000 0.000000 0.000000 0.000000 -0.347080 0.245510 19.012992 -0.715736 0.367359 -0.135783 2.284691 7.056746 0.132172 0.000000 0.000000 0.000000 -0.982675 0.095284 20.479358 0.647982 -0.081632 -1.464015 -10.385367 -18.221851 14.084595 0.000000 0.000000 0.000000
